<svg xmlns="http://www.w3.org/2000/svg" width="55" height="54" fill="none"><g clip-path="url(#a)"><rect width="54" height="54" x=".469" fill="#fff" rx="12.96"/><circle cx="26.928" cy="19.756" r="44.6" fill="#CADFDE"/><path fill="#F2A37E" d="M49.63 32.033c0 6.187 5.928 5.945 12.114 5.945s8.018-2.426 8.018-8.612c0-6.187-5.015-11.202-11.202-11.202-11.821 3.225-8.93 7.683-8.93 13.87M4.109 32.033c0 6.187-5.929 5.945-12.115 5.945s-8.017-2.426-8.017-8.612c0-6.187 5.015-11.202 11.201-11.202C7 21.39 4.108 25.847 4.108 32.034"/><circle cx="27.742" cy="65.758" r="27" fill="#484F52"/><path fill="#FCC59E" d="m3.436 11.336-1.35 22.95c0 15.12 10.08 18 15.12 17.55 0 0 13.527-1.276 22.14 0 7.29 1.08 12.87-8.55 13.5-15.12.18-3.78.27-13.986-.81-24.57-1.35-13.23-11.88-7.56-19.71-7.56-6.664 0-7.83 0-17.01-1.35-9.072-1.334-11.61 4.41-11.88 8.1"/><path stroke="#415564" stroke-width="2.16" d="M24.227 23.218c1.08-.54 5.4-.54 6.48 0"/><circle cx="40.159" cy="24.03" r="9.45" stroke="#415564" stroke-width="2.16"/><circle cx="14.776" cy="24.03" r="9.45" stroke="#415564" stroke-width="2.16"/><circle cx="14.776" cy="24.026" r="8.37" fill="#fff"/><circle cx="40.159" cy="24.026" r="8.37" fill="#fff"/><path fill="#000" fill-opacity=".04" d="M34.49 23.219c0 3.28 2.417 5.94 5.4 5.94 2.981 0 5.4-2.66 5.4-5.94z"/><ellipse cx="3.24" cy="2.7" fill="#414141" rx="3.24" ry="2.7" transform="matrix(-1 0 0 1 44.746 22.14)"/><path fill="#414141" d="M45.29 22.95a.81.81 0 0 0-.81-.81H35.3a.81.81 0 0 0 0 1.62h9.18a.81.81 0 0 0 .81-.81"/><path fill="#BECFC4" d="M9.705 56.88c-2.395-15.162 2.132-17.467 4.694-16.723 7.629-2.035 24.071-4.883 28.813 0 4.741 4.882 2.601 13.183.938 16.724z"/><path fill="#B2BDB3" d="M14.398 40.157c7.628-2.034 24.07-4.882 28.812 0 1.306 1.345 2.087 2.95 2.503 4.643-.545.44-1.373.806-2.586 1.027-4.313.784-7.025-2.334-7.842-3.991-1.143 1.564-4.34 3.865-7.981.56-1.12 1.307-4.076 3.137-6.932 0-2.217 2.008-7.281 5.419-9.802 3.01a6.6 6.6 0 0 1-1.101-.71c.971-4.282 3.331-5.002 4.929-4.539"/><path fill="#E0E7D9" d="M46.068 39.589c-16.411-14.339-31.623-5.974-37.177 0-1.868 1.726.342 3.52 1.68 4.2 2.52 2.41 7.585-1.003 9.802-3.01 2.856 3.137 5.811 1.307 6.931 0 3.64 3.305 6.838 1.004 7.982-.56.816 1.657 3.528 4.775 7.841 3.99 4.313-.783 3.758-3.406 2.94-4.62"/><path fill="#000" fill-opacity=".04" d="M19.91 23.219c0 3.28-2.418 5.94-5.4 5.94s-5.4-2.66-5.4-5.94z"/><ellipse cx="16.127" cy="24.841" fill="#414141" rx="3.24" ry="2.7"/><path fill="#414141" d="M9.11 22.95a.81.81 0 0 1 .81-.81h9.18a.81.81 0 0 1 0 1.62H9.92a.81.81 0 0 1-.81-.81"/><path fill="#DEF0E4" stroke="#DEF0E4" stroke-width=".54" d="M15.311 11.613c-2.191-1.844-4.567-1.475-5.347-.948-.668.318-3.069.475-2.34-.79 1.004-1.74 2.34-2.69 5.014-2.848 2.139-.126 7.173 3.081 9.024 3.953.334.157 1.504-.79 2.506.159 1.347 1.275.168 2.69-1.002 2.848s-4.847.156-7.855-2.374Z"/><path fill="#F07A61" d="M23.064 29.285c.234-.443.534-.848.888-1.203 2.052-2.051 5.438-1.913 7.357.263.315.356.582.76.786 1.19l1.927 4.068q.195.413.3.86a4.317 4.317 0 0 1-3.155 5.176l-1.978.495a6.4 6.4 0 0 1-2.913.043l-1.939-.424a4.75 4.75 0 0 1-3.182-6.862z"/><path fill="#CF6A55" d="M29.628 39.148s2.996-.658 3.24-1.89c.372-1.884-3.294.11-5.4 0-1.905-.1-5.148-2.385-4.86-.486.165 1.093.952 1.25 1.89 1.836 1.788 1.117 5.13.54 5.13.54"/><ellipse cx="24.611" cy="37.466" fill="#680C0C" rx="1.363" ry=".54" transform="rotate(23.78 24.611 37.466)"/><ellipse cx="1.363" cy=".54" fill="#680C0C" rx="1.363" ry=".54" transform="scale(1 -1)rotate(23.78 106.903 51.221)"/><path fill="#DEF0E4" d="M36.466 8.98c-3.95 1.093-4.974 1.853-5.125 3.505-.219 2.39 6.993 1.564 9.534.703 2.54-.862 3.702-2.232 3.956-3.998.255-1.766-3.575-1.534-8.365-.21"/></g><defs><clipPath id="a"><rect width="54" height="54" x=".469" fill="#fff" rx="12.96"/></clipPath></defs></svg>