<svg width="1438" height="1521" viewBox="0 0 1438 1521" fill="none" xmlns="http://www.w3.org/2000/svg">
<path fill-rule="evenodd" clip-rule="evenodd" d="M719 1520.55C1116.09 1520.55 1438 1180.16 1438 760.276C1438 340.387 1116.09 0 719 0C321.907 0 0 340.387 0 760.276C0 1180.16 321.907 1520.55 719 1520.55ZM568.336 1492.8C573.707 1496.08 579.656 1498.07 585.785 1498.63C593.35 1499.27 600.929 1497.63 607.702 1493.89C614.474 1490.15 620.182 1484.45 624.206 1477.42C668.168 1401.3 823.329 1135.92 1089.69 681.257C1107.79 643.874 1092.64 627.102 1063.46 625.082L807.259 607.097L901.833 90.8062C903.847 80.0344 902.412 68.8321 897.769 59.0809C893.248 49.4255 885.806 41.784 876.712 37.4592C867.714 33.2015 857.617 32.6273 848.265 35.8423C838.913 39.1117 830.885 45.8237 825.545 54.837C740.731 200.82 664.623 331.474 597.314 447.021C503.812 607.534 427.292 738.895 368.006 841.701C365.79 844.126 322.197 902.726 386.478 907.374L641.754 925.359L547.18 1441.45C545.87 1448.02 545.858 1454.83 547.145 1461.41C548.432 1467.99 550.988 1474.19 554.642 1479.61C558.297 1485.02 562.965 1489.52 568.336 1492.8Z" fill="white"/>
</svg>
