<svg width="265" height="68" viewBox="0 0 265 68" fill="none" xmlns="http://www.w3.org/2000/svg">
<path d="M15.3203 54.0329C12.3477 54.0512 9.38898 53.6206 6.54171 52.7553C4.19633 52.1171 1.98141 51.0624 0 49.6402L2.80266 44.2595C4.61314 45.458 6.58403 46.3873 8.65508 47.019C10.9662 47.7734 13.3799 48.1557 15.808 48.1517C18.9293 48.1517 21.1793 47.7127 22.5578 46.8346C23.2008 46.4519 23.7309 45.902 24.0934 45.242C24.4558 44.5819 24.6374 43.8357 24.6192 43.0806C24.6442 42.5524 24.5431 42.0258 24.3247 41.5455C24.1062 41.0652 23.7768 40.6452 23.3642 40.3211C22.3742 39.5903 21.2412 39.0829 20.0413 38.8327C18.6627 38.5035 17.1346 38.2071 15.4569 37.9436C13.7792 37.6802 12.1015 37.3509 10.4238 36.9557C8.8221 36.5825 7.27159 36.0118 5.80692 35.2566C4.44406 34.5553 3.28699 33.5038 2.45153 32.2073C1.54116 30.6339 1.10281 28.826 1.19 27.0045C1.15484 24.871 1.82046 22.786 3.08229 21.0772C4.46079 19.2762 6.31372 17.9064 8.4275 17.1257C11.0576 16.1472 13.8457 15.6781 16.6469 15.7426C19.1327 15.7499 21.6093 16.0483 24.0275 16.6317C26.2002 17.0899 28.2732 17.9422 30.1465 19.1475L27.2788 24.5282C25.6839 23.4333 23.9058 22.6411 22.0311 22.1902C20.2429 21.763 18.4127 21.542 16.5754 21.5316C13.6427 21.5316 11.4447 22.019 10.0011 22.9871C9.35001 23.3609 8.80725 23.9014 8.42723 24.5544C8.0472 25.2074 7.84324 25.9501 7.83576 26.7081C7.80548 27.2673 7.90772 27.8257 8.13396 28.3367C8.36021 28.8476 8.70389 29.2964 9.1363 29.6454C10.1372 30.4004 11.2785 30.9426 12.4917 31.2392C14.0008 31.6449 15.5314 31.9637 17.0761 32.1942C18.7538 32.4576 20.4315 32.7891 22.1092 33.1886C23.6857 33.5583 25.2136 34.1154 26.661 34.8483C28.0119 35.5371 29.1685 36.5612 30.0229 37.8251C30.954 39.355 31.4073 41.134 31.3235 42.9291C31.3685 45.0577 30.6786 47.1354 29.3727 48.8037C27.9067 50.5705 25.9971 51.9038 23.8454 52.6631C21.1094 53.6403 18.2206 54.1045 15.3203 54.0329V54.0329Z" fill="#111217"/>
<path d="M34.4128 21.6897L34.4128 16.0917L58.0501 16.0917L58.0501 21.6897L34.4128 21.6897ZM52.4578 54.0593C48.7253 54.0593 45.8337 53.0451 43.7832 51.0166C41.7327 48.9882 40.7074 46.0838 40.7074 42.3035L40.7074 7.85931L47.4182 7.85931L47.4182 42.0005C47.4182 44.029 47.9211 45.5876 48.9269 46.6765C49.4887 47.2404 50.1625 47.6771 50.9034 47.9575C51.6444 48.2379 52.4358 48.3557 53.2251 48.3032C55.1275 48.3688 56.9898 47.7401 58.4728 46.5316L60.5667 51.4183C59.4984 52.336 58.2476 53.0099 56.8992 53.3941C55.457 53.8235 53.961 54.0387 52.4578 54.0329V54.0593Z" fill="#111217"/>
<path d="M111.833 53.6114L111.833 16.0719L118.264 16.0719L118.264 26.2998L117.614 23.751C118.603 21.2154 120.446 19.1159 122.816 17.8237C125.579 16.3754 128.661 15.668 131.771 15.7689V22.3548C131.504 22.3087 131.234 22.2845 130.964 22.2824H130.223C126.633 22.2824 123.79 23.369 121.691 25.5424C119.593 27.7157 118.544 30.855 118.544 34.9602L118.544 53.6641L111.833 53.6114Z" fill="#111217"/>
<path d="M186.387 15.7095C189.118 15.6559 191.822 16.2632 194.275 17.4812C196.567 18.6717 198.437 20.5543 199.627 22.8684C200.927 25.2744 201.577 28.3193 201.577 32.003L201.577 53.6113L194.847 53.6113L194.847 32.7802C194.847 29.1448 194.008 26.4072 192.331 24.5676C190.653 22.7279 188.299 21.8059 185.269 21.8015C183.23 21.7588 181.214 22.2487 179.416 23.2241C177.72 24.1732 176.357 25.6321 175.515 27.3995C174.546 29.5528 174.081 31.9035 174.156 34.2686L174.156 53.6113L167.432 53.6113L167.432 32.7802C167.432 29.1448 166.604 26.4072 164.948 24.5676C163.292 22.7279 160.929 21.8059 157.86 21.8015C155.835 21.759 153.835 22.2491 152.053 23.2241C150.364 24.1823 149.003 25.6387 148.151 27.3995C147.153 29.5442 146.674 31.8989 146.753 34.2686L146.753 53.6113L140.016 53.6113L140.016 16.0718L146.454 16.0718L146.454 26.0626L145.401 23.5138C146.553 21.0724 148.437 19.0623 150.785 17.7709C153.382 16.3628 156.293 15.6551 159.238 15.7161C162.487 15.6237 165.685 16.5432 168.401 18.3505C170.963 20.1067 172.641 22.7872 173.434 26.3919L170.709 25.2525C171.849 22.347 173.907 19.9059 176.562 18.311C179.529 16.5216 182.935 15.6197 186.387 15.7095V15.7095Z" fill="#111217"/>
<path d="M230.449 54.033C226.813 54.1138 223.216 53.262 219.992 51.5567C217.076 49.9926 214.652 47.6309 212.995 44.7403C211.315 41.7303 210.464 38.3186 210.531 34.8615C210.466 31.4008 211.298 27.9833 212.943 24.9498C214.502 22.119 216.802 19.7785 219.589 18.1861C222.516 16.585 225.788 15.7433 229.114 15.7364C232.44 15.7295 235.716 16.5576 238.649 18.1466C241.387 19.7443 243.629 22.0876 245.119 24.9103C246.734 28.0454 247.539 31.5436 247.46 35.0789C247.46 35.3621 247.46 35.6914 247.46 36.0668C247.46 36.4422 247.401 36.8044 247.356 37.1337L215.733 37.1337V32.2272L243.779 32.2272L241.048 33.9329C241.133 31.6896 240.626 29.464 239.578 27.4853C238.601 25.6421 237.138 24.11 235.352 23.0596C233.433 22.0134 231.288 21.4657 229.109 21.4657C226.93 21.4657 224.785 22.0134 222.867 23.0596C221.058 24.1089 219.579 25.6545 218.601 27.5183C217.549 29.5356 217.018 31.7901 217.06 34.0712V35.204C217.02 37.5532 217.614 39.8688 218.776 41.9018C219.912 43.8545 221.575 45.438 223.569 46.4658C225.774 47.5915 228.22 48.1481 230.689 48.086C232.736 48.1116 234.767 47.7266 236.665 46.9532C238.47 46.1896 240.083 45.0261 241.386 43.5483L245.093 47.9411C243.396 49.9388 241.251 51.495 238.837 52.4788C236.169 53.549 233.318 54.0771 230.449 54.033V54.033Z" fill="#111217"/>
<path d="M251.987 67.7908C250.489 67.7947 248.996 67.6044 247.545 67.2244C246.246 66.9005 245.022 66.3209 243.943 65.5187L246.115 60.2829C247.666 61.5136 249.602 62.1399 251.571 62.0479C252.331 62.0949 253.093 61.9704 253.8 61.6835C254.507 61.3965 255.143 60.9541 255.661 60.3883C256.619 59.2731 257.096 57.631 257.091 55.462L257.091 16.0785L263.809 16.0785L263.809 55.3237C263.809 59.1435 262.794 62.1774 260.765 64.4254C258.737 66.6734 255.81 67.7952 251.987 67.7908ZM260.44 8.85376C259.842 8.87224 259.246 8.76929 258.688 8.551C258.129 8.3327 257.62 8.00348 257.189 7.58269C256.77 7.18229 256.438 6.69793 256.214 6.16048C255.99 5.62303 255.879 5.04426 255.888 4.46099C255.876 3.86749 255.985 3.27779 256.209 2.72914C256.433 2.1805 256.766 1.68481 257.189 1.27341C257.62 0.852615 258.129 0.523395 258.688 0.305102C259.246 0.0868086 259.842 -0.0161404 260.44 0.00233779C261.643 -0.0364494 262.812 0.40872 263.692 1.24049C264.111 1.63232 264.443 2.10947 264.667 2.64067C264.892 3.17187 265.002 3.74509 264.992 4.32267C265.007 4.92852 264.899 5.53096 264.674 6.09271C264.45 6.65445 264.114 7.16351 263.687 7.58832C263.26 8.01313 262.752 8.34466 262.193 8.56233C261.635 8.78 261.038 8.8792 260.44 8.85376V8.85376Z" fill="#111217"/>
<path fill-rule="evenodd" clip-rule="evenodd" d="M83.2996 54.0328C79.8309 54.1003 76.4052 53.2465 73.3635 51.5565C70.5176 49.9467 68.1506 47.5927 66.5097 44.7402C64.8588 41.7088 63.993 38.3034 63.993 34.8416C63.993 31.3797 64.8588 27.9743 66.5097 24.943C68.1491 22.1028 70.5176 19.7654 73.3635 18.1793C76.4275 16.5697 79.8285 15.7295 83.2801 15.7295C86.7317 15.7295 90.1328 16.5697 93.1967 18.1793C96.0445 19.7452 98.4147 22.0706 100.051 24.9035C101.677 27.956 102.528 31.3699 102.528 34.8383C102.528 38.3067 101.677 41.7206 100.051 44.7731C98.4199 47.6303 96.0501 49.9826 93.1967 51.5763C90.1637 53.2502 86.7531 54.0967 83.2996 54.0328ZM79.1839 53.5162C79.3262 53.5985 79.4839 53.6483 79.6463 53.6625C79.8468 53.6785 80.0477 53.6373 80.2272 53.5436C80.4067 53.4498 80.558 53.3071 80.6646 53.1307C81.8298 51.223 85.942 44.5712 93.0014 33.1755C93.4811 32.2385 93.0797 31.8181 92.3062 31.7675L85.5161 31.3167L88.0226 18.3762C88.076 18.1062 88.038 17.8255 87.9149 17.5811C87.7951 17.3391 87.5979 17.1475 87.3568 17.0391C87.1184 16.9324 86.8508 16.918 86.6029 16.9986C86.355 17.0805 86.1423 17.2488 86.0008 17.4747C83.753 21.1336 81.7359 24.4083 79.952 27.3044C77.4738 31.3276 75.4458 34.6201 73.8745 37.1969C73.8158 37.2577 72.6604 38.7265 74.3641 38.843L81.1297 39.2937L78.6232 52.2292C78.5885 52.394 78.5881 52.5645 78.6223 52.7295C78.6564 52.8944 78.7241 53.0499 78.821 53.1856C78.9178 53.3213 79.0415 53.434 79.1839 53.5162Z" fill="#111217"/>
</svg>
