<?xml version="1.0" standalone="no"?>
<!DOCTYPE svg PUBLIC "-//W3C//DTD SVG 20010904//EN"
 "http://www.w3.org/TR/2001/REC-SVG-20010904/DTD/svg10.dtd">
<svg version="1.0" xmlns="http://www.w3.org/2000/svg"
 width="1521.000000pt" height="1521.000000pt" viewBox="0 0 1521.000000 1521.000000"
 preserveAspectRatio="xMidYMid meet">
<metadata>
Created by potrace 1.14, written by Peter Selinger 2001-2017
</metadata>
<g transform="translate(0.000000,1521.000000) scale(0.100000,-0.100000)"
fill="#000000" stroke="none">
<path d="M7288 15205 c-1 -2 -57 -6 -123 -9 -136 -8 -181 -12 -355 -32 -53 -6
-314 -43 -350 -50 -14 -2 -41 -7 -60 -10 -28 -4 -123 -22 -150 -29 -3 -1 -25
-5 -50 -10 -25 -5 -47 -9 -50 -10 -3 -1 -18 -4 -35 -8 -16 -4 -39 -9 -50 -11
-60 -12 -318 -81 -435 -116 -74 -22 -142 -43 -150 -45 -62 -18 -406 -144 -465
-170 -16 -8 -109 -48 -205 -91 -367 -161 -753 -375 -1084 -602 -109 -74 -222
-154 -241 -170 -5 -4 -37 -28 -69 -52 -69 -50 -55 -39 -211 -166 -66 -54 -133
-110 -149 -124 -15 -14 -38 -34 -51 -45 -256 -227 -642 -619 -760 -774 -11
-15 -29 -37 -40 -50 -39 -45 -57 -67 -83 -100 -15 -19 -46 -57 -68 -86 -149
-184 -388 -534 -538 -785 -15 -25 -31 -52 -36 -60 -6 -8 -35 -60 -65 -115 -31
-55 -62 -111 -70 -125 -37 -64 -210 -419 -263 -540 -85 -192 -238 -585 -253
-648 -1 -4 -6 -18 -11 -32 -39 -101 -198 -675 -222 -802 -2 -13 -13 -68 -25
-123 -23 -114 -27 -136 -41 -220 -5 -33 -12 -69 -14 -81 -2 -12 -7 -45 -11
-75 -4 -30 -8 -56 -10 -59 -2 -3 -6 -34 -10 -70 -4 -36 -8 -72 -10 -80 -2 -8
-6 -44 -9 -80 -4 -36 -9 -76 -11 -90 -3 -14 -7 -59 -11 -100 -3 -41 -7 -91 -9
-110 -27 -294 -27 -1031 0 -1295 3 -22 7 -69 10 -104 2 -35 7 -82 10 -105 25
-207 37 -299 45 -346 5 -30 12 -75 15 -100 3 -25 8 -52 10 -60 2 -8 7 -31 10
-50 17 -94 24 -133 43 -225 12 -55 31 -140 42 -190 12 -49 23 -97 25 -105 45
-216 256 -860 355 -1085 10 -22 39 -89 65 -150 238 -551 531 -1054 904 -1555
47 -63 88 -117 91 -120 3 -3 32 -39 65 -80 32 -41 61 -77 64 -80 4 -3 23 -25
43 -50 39 -48 53 -64 155 -180 74 -84 457 -468 544 -545 124 -111 334 -287
393 -330 16 -11 33 -24 40 -30 6 -5 29 -23 51 -39 22 -17 42 -32 45 -36 12
-13 185 -134 315 -220 77 -51 152 -101 167 -111 15 -10 30 -19 32 -19 3 0 36
-20 73 -43 145 -93 521 -290 754 -395 494 -223 1077 -402 1609 -493 138 -24
152 -26 210 -34 25 -3 56 -8 70 -10 14 -2 52 -7 85 -11 33 -3 69 -8 79 -10 10
-2 55 -6 100 -10 45 -3 97 -7 116 -9 242 -23 834 -24 1060 0 19 2 72 6 117 10
45 3 90 8 102 10 11 2 46 6 78 10 32 3 69 8 83 10 14 2 45 6 70 10 25 4 56 8
70 10 80 12 228 38 315 56 55 12 107 22 116 24 303 59 948 269 1254 409 28 12
75 34 105 47 162 71 419 205 655 341 33 19 71 41 85 49 14 8 27 16 30 19 3 3
48 32 100 65 142 88 537 367 560 395 3 3 32 27 65 52 33 25 70 54 81 64 12 11
46 39 75 64 248 209 645 602 820 814 13 16 31 36 40 45 13 14 176 214 212 261
7 9 33 43 58 75 152 198 489 710 542 825 4 8 15 29 25 45 16 27 57 102 166
310 116 220 293 641 402 955 41 121 149 469 158 513 3 12 25 103 50 202 24 99
47 194 50 210 3 17 16 89 31 160 23 120 47 259 59 345 32 232 38 283 51 425 4
39 8 89 10 113 27 293 27 1078 0 1287 -2 17 -7 66 -10 110 -3 44 -8 91 -10
105 -2 14 -7 50 -10 80 -3 30 -8 66 -10 80 -2 14 -6 48 -10 75 -4 28 -8 61
-10 75 -5 37 -24 151 -30 180 -2 13 -7 42 -10 65 -3 22 -8 47 -10 55 -2 8 -6
32 -10 54 -3 21 -7 41 -9 45 -2 3 -7 22 -10 41 -21 132 -99 447 -167 675 -59
194 -151 467 -179 530 -5 11 -25 61 -43 110 -70 181 -147 354 -268 600 -93
187 -112 224 -229 430 -142 251 -426 672 -594 880 -22 29 -53 67 -68 86 -190
241 -470 542 -734 789 -84 78 -104 96 -219 195 -39 33 -76 66 -83 73 -8 7 -30
25 -50 40 -21 15 -43 33 -51 40 -7 7 -50 40 -95 74 -44 34 -83 64 -86 68 -3 3
-18 14 -34 25 -16 11 -41 29 -56 40 -45 33 -181 129 -199 140 -9 6 -61 40
-116 76 -354 231 -752 440 -1140 599 -71 29 -143 58 -160 65 -16 7 -91 34
-165 60 -74 26 -142 50 -150 53 -8 3 -19 6 -25 8 -5 1 -68 20 -140 43 -252 78
-656 171 -895 206 -19 3 -82 12 -140 20 -58 9 -127 17 -155 20 -27 2 -63 6
-80 9 -16 2 -73 8 -125 11 -52 4 -111 9 -130 11 -41 6 -757 14 -762 9z m1892
-372 c59 -27 135 -95 176 -159 71 -110 94 -242 68 -388 -6 -39 -15 -87 -18
-106 -6 -37 -12 -68 -21 -112 -4 -15 -8 -39 -10 -55 -2 -15 -18 -102 -35 -193
-38 -201 -69 -375 -75 -413 -2 -16 -6 -40 -10 -55 -10 -47 -50 -262 -59 -317
-4 -22 -22 -124 -31 -170 -3 -16 -10 -55 -15 -85 -6 -30 -12 -66 -15 -80 -3
-14 -18 -99 -35 -190 -16 -91 -32 -175 -34 -186 -2 -12 -7 -37 -10 -55 -3 -19
-8 -45 -11 -59 -2 -14 -7 -36 -10 -50 -2 -14 -7 -41 -10 -60 -3 -19 -8 -42
-10 -50 -2 -8 -6 -31 -9 -50 -3 -19 -13 -73 -21 -120 -9 -47 -22 -123 -30
-170 -9 -47 -22 -119 -30 -160 -8 -41 -17 -88 -20 -105 -2 -16 -7 -40 -9 -51
-2 -12 -7 -37 -10 -55 -3 -19 -8 -45 -11 -59 -2 -14 -9 -47 -15 -75 -5 -27
-13 -68 -16 -90 -3 -22 -14 -84 -25 -138 -18 -94 -22 -113 -34 -187 -3 -19
-17 -96 -31 -170 -14 -74 -27 -148 -30 -165 -3 -16 -9 -50 -14 -75 -5 -25 -14
-72 -20 -105 -5 -33 -12 -71 -15 -85 -3 -14 -25 -135 -49 -270 -25 -135 -48
-258 -51 -275 -3 -16 -8 -46 -11 -65 -3 -19 -7 -42 -9 -50 -3 -8 -7 -32 -11
-54 -3 -21 -8 -48 -10 -60 -3 -11 -9 -43 -14 -71 -5 -27 -12 -63 -15 -80 -3
-16 -8 -43 -10 -59 -2 -15 -7 -37 -10 -47 -5 -14 -1 -19 12 -20 10 0 34 -2 53
-4 32 -2 88 -7 275 -20 153 -11 295 -21 430 -30 39 -3 104 -7 145 -10 158 -11
227 -16 285 -20 33 -3 94 -7 135 -10 138 -9 225 -15 295 -21 39 -3 99 -7 135
-9 77 -4 219 -15 275 -20 22 -2 90 -6 150 -10 61 -3 130 -8 155 -10 25 -2 83
-7 130 -10 248 -17 358 -66 408 -185 31 -73 12 -230 -41 -340 -12 -25 -165
-290 -332 -575 -209 -356 -348 -593 -428 -731 -32 -54 -62 -106 -67 -114 -6
-8 -44 -73 -85 -145 -42 -71 -80 -137 -85 -145 -5 -8 -22 -37 -38 -65 -25 -45
-218 -374 -665 -1135 -82 -140 -161 -275 -175 -300 -14 -25 -36 -62 -49 -82
-12 -21 -23 -42 -23 -48 0 -5 -4 -10 -10 -10 -5 0 -10 -4 -10 -9 0 -4 -21 -45
-47 -89 -27 -45 -115 -197 -198 -338 -82 -141 -159 -273 -171 -293 -12 -20
-80 -137 -153 -260 -72 -123 -131 -228 -131 -233 0 -4 -4 -8 -10 -8 -5 0 -10
-4 -10 -10 0 -9 -132 -238 -186 -322 -13 -21 -24 -40 -24 -42 0 -3 -34 -62
-75 -131 -41 -70 -75 -130 -75 -133 0 -3 -6 -13 -14 -21 -7 -9 -25 -36 -38
-61 -14 -25 -87 -151 -163 -280 -75 -129 -159 -273 -186 -320 -27 -47 -54 -92
-59 -100 -5 -8 -28 -46 -50 -85 -22 -38 -51 -88 -65 -110 -13 -22 -30 -51 -38
-65 -7 -14 -69 -119 -136 -235 -68 -115 -135 -230 -149 -255 -14 -25 -33 -57
-43 -72 -11 -14 -19 -29 -19 -32 0 -4 -11 -23 -24 -44 -13 -20 -81 -136 -151
-257 -70 -121 -136 -233 -146 -250 -11 -16 -22 -37 -26 -45 -4 -8 -41 -73 -83
-145 -42 -71 -120 -205 -173 -296 -54 -93 -115 -184 -139 -208 -233 -228 -599
-108 -689 227 -16 61 -19 186 -5 242 3 14 8 36 10 50 2 14 9 52 15 85 11 61
13 73 25 135 3 19 8 46 11 60 3 14 23 124 45 245 40 218 45 247 55 295 2 14 6
36 9 50 11 66 30 173 66 365 22 116 42 226 45 245 3 19 12 69 20 110 8 41 17
91 20 110 3 19 14 80 25 135 10 55 26 138 34 185 9 47 18 96 21 110 3 14 7 39
9 57 3 18 7 40 10 50 2 10 7 36 11 57 3 22 21 123 40 225 19 102 36 197 39
211 5 29 33 181 41 225 5 26 15 82 55 300 5 28 21 113 35 190 14 77 28 149 29
160 2 11 18 99 36 195 17 96 34 185 36 198 2 12 6 32 8 45 2 12 32 171 65 352
33 182 63 346 66 365 3 19 10 53 15 75 5 22 11 56 14 75 3 19 12 70 19 113
l14 77 -56 1 c-31 1 -65 3 -76 4 -11 2 -67 6 -125 10 -161 10 -264 17 -435 30
-33 2 -96 7 -140 10 -147 10 -199 14 -275 20 -75 5 -117 8 -285 19 -93 7 -170
12 -277 21 -35 3 -101 7 -148 10 -47 3 -114 7 -150 10 -36 3 -96 7 -135 10
-70 4 -157 11 -295 21 -41 3 -100 7 -130 9 -240 14 -368 99 -372 248 -2 60 5
105 25 163 21 59 73 158 111 212 26 38 171 282 278 470 10 17 26 47 36 65 11
17 84 145 164 282 80 138 156 268 168 290 12 22 26 45 30 50 4 6 19 30 32 55
14 25 55 96 92 158 36 62 66 116 66 119 0 4 6 14 14 22 7 9 28 43 45 76 18 32
41 71 52 86 10 15 19 30 19 33 0 4 20 39 44 79 24 39 55 92 68 117 21 37 214
367 460 790 28 47 60 103 73 125 61 107 255 441 262 451 4 5 13 19 19 30 22
41 282 486 363 624 47 80 91 156 98 170 7 14 23 42 35 62 62 100 118 199 118
208 0 5 5 10 10 10 6 0 10 4 10 9 0 5 28 56 61 113 34 56 70 118 81 136 10 18
99 171 197 340 98 169 188 323 199 343 11 20 40 69 64 110 25 41 63 105 84
142 21 38 47 83 58 100 10 18 55 95 100 172 44 77 86 149 93 160 7 11 16 27
20 35 4 8 49 87 101 175 81 137 562 963 612 1050 37 65 122 211 130 225 27 44
120 203 120 206 0 1 36 63 80 137 59 100 94 148 136 186 65 57 153 96 229 100
27 1 51 4 53 6 6 5 95 -21 142 -42z"/>
</g>
</svg>
