<svg width="28" height="28" viewBox="0 0 28 28" fill="none" xmlns="http://www.w3.org/2000/svg">
<path d="M7.65512 7.57544L5.84 5.76001L5.84768 18.8826L5.8694 19.4959C5.87839 19.7845 5.93193 20.1101 6.02122 20.4476L20.4035 25.52L23.9987 23.9269L24 23.9225L7.65512 7.57544Z" fill="#00D2B8"/>
<path d="M6.08305 20.4976L6.08392 20.4985C6.08305 20.4926 6.07999 20.4861 6.07999 20.48C6.07999 20.4861 6.08086 20.4917 6.08305 20.4976ZM23.9987 23.9461L20.4159 25.5252L6.08392 20.4985C6.35767 21.5434 6.96376 22.7179 7.61599 23.3602L12.2933 27.9865L22.6933 28L24 23.9418L23.9987 23.9461Z" fill="#55DDCA"/>
<path d="M0.242727 14.2234C-0.227308 14.7206 0.00615623 15.7463 0.762918 16.502L4.0272 19.7637L6.08 20.48C5.98968 20.1418 5.93553 19.8154 5.92643 19.5262L5.90446 18.9115L5.89669 5.76001L0.242727 14.2234Z" fill="#0081C6"/>
<path d="M20.5228 5.93113C20.1853 5.84491 19.8617 5.7916 19.5683 5.78239L18.9201 5.76001L5.84 5.76176L24.0033 23.92H24.0048L25.6 20.3217L20.5228 5.93113Z" fill="#0079B3"/>
<path d="M20.56 5.91998C20.567 5.92152 20.5724 5.92349 20.577 5.92415L20.5764 5.92349C20.5724 5.92152 20.567 5.92152 20.56 5.91998ZM23.4446 7.46485C22.7893 6.80007 21.6269 6.19586 20.577 5.92415L25.6237 20.3202L24.0379 23.92H24.0364L27.9117 22.6747L27.92 11.9847L23.4446 7.46485Z" fill="#00A4E4"/>
<path d="M19.8471 3.98248L16.5854 0.752792C15.8311 0.00736033 14.8047 -0.224586 14.3087 0.238868L5.84 5.83059L18.9533 5.82884L19.6031 5.85122C19.8972 5.86044 20.2217 5.91376 20.56 6L19.8471 3.98248Z" fill="#00D2B8"/>
</svg>
