<svg width="19" height="28" viewBox="0 0 19 28" fill="none" xmlns="http://www.w3.org/2000/svg">
<g clip-path="url(#clip0_508_2385)">
<path d="M9.33334 14C9.33334 12.7623 9.82501 11.5753 10.7002 10.7001C11.5753 9.82498 12.7623 9.33331 14 9.33331C15.2377 9.33331 16.4247 9.82498 17.2998 10.7001C18.175 11.5753 18.6667 12.7623 18.6667 14C18.6667 15.2377 18.175 16.4246 17.2998 17.2998C16.4247 18.175 15.2377 18.6666 14 18.6666C12.7623 18.6666 11.5753 18.175 10.7002 17.2998C9.82501 16.4246 9.33334 15.2377 9.33334 14V14Z" fill="#1ABCFE"/>
<path d="M0 23.3334C0 22.0957 0.491665 20.9087 1.36683 20.0335C2.242 19.1584 3.42899 18.6667 4.66667 18.6667H9.33333V23.3334C9.33333 24.571 8.84167 25.758 7.9665 26.6332C7.09133 27.5084 5.90434 28 4.66667 28C3.42899 28 2.242 27.5084 1.36683 26.6332C0.491665 25.758 0 24.571 0 23.3334H0Z" fill="#0ACF83"/>
<path d="M9.33334 0V9.33333H14C15.2377 9.33333 16.4247 8.84167 17.2998 7.9665C18.175 7.09133 18.6667 5.90434 18.6667 4.66667C18.6667 3.42899 18.175 2.242 17.2998 1.36683C16.4247 0.491665 15.2377 0 14 0L9.33334 0Z" fill="#FF7262"/>
<path d="M0 4.66667C0 5.90434 0.491665 7.09133 1.36683 7.9665C2.242 8.84167 3.42899 9.33333 4.66667 9.33333H9.33333V0H4.66667C3.42899 0 2.242 0.491665 1.36683 1.36683C0.491665 2.242 0 3.42899 0 4.66667H0Z" fill="#F24E1E"/>
<path d="M0 14C0 15.2377 0.491665 16.4246 1.36683 17.2998C2.242 18.175 3.42899 18.6666 4.66667 18.6666H9.33333V9.33331H4.66667C3.42899 9.33331 2.242 9.82498 1.36683 10.7001C0.491665 11.5753 0 12.7623 0 14H0Z" fill="#A259FF"/>
</g>
<defs>
<clipPath id="clip0_508_2385">
<rect width="18.6667" height="28" fill="white"/>
</clipPath>
</defs>
</svg>
