<svg width="21" height="28" viewBox="0 0 21 28" fill="none" xmlns="http://www.w3.org/2000/svg">
<path d="M13.2744 10.1135L10.474 12.721L7.87448 7.47547L9.21736 4.45939C9.55676 3.85777 10.1118 3.84982 10.4513 4.45939L13.2744 10.1135Z" fill="#FFA000"/>
<path d="M10.4751 12.7198L0 22.4628L7.87562 7.47546L10.4751 12.7198Z" fill="#F57F17"/>
<path d="M16.3449 6.12581C16.8467 5.64791 17.3631 5.8091 17.4937 6.48792L20.2169 22.3311L11.1846 27.7537C10.8679 27.9308 10.0279 28 10.0279 28C10.0279 28 9.2639 27.9069 8.97103 27.7457L0 22.4628L16.3449 6.12581Z" fill="#FFCA28"/>
<path d="M7.87562 7.47548L0 22.4628L3.50986 0.556783C3.64154 -0.122032 4.02635 -0.191276 4.37371 0.41035L7.87562 7.47548Z" fill="#FFA000"/>
</svg>
