<svg width="28" height="28" viewBox="0 0 28 28" fill="none" xmlns="http://www.w3.org/2000/svg">
<path d="M13.9741 0.10498C6.25742 0.10498 0 6.46792 0 14.3176C0 20.5973 4.004 25.9249 9.55633 27.8042C10.2547 27.9358 10.5111 27.4959 10.5111 27.1205C10.5111 26.7816 10.4981 25.662 10.4921 24.4743C6.60453 25.3341 5.7842 22.7974 5.7842 22.7974C5.14853 21.1546 4.23263 20.7178 4.23263 20.7178C2.96476 19.8356 4.3282 19.8538 4.3282 19.8538C5.73144 19.9538 6.47031 21.3184 6.47031 21.3184C7.71666 23.4912 9.73937 22.8631 10.5368 22.4999C10.6622 21.5815 11.0244 20.9541 11.424 20.5994C8.32016 20.24 5.05736 19.0213 5.05736 13.5753C5.05736 12.0236 5.60324 10.7557 6.49716 9.76037C6.35207 9.40215 5.87375 7.95681 6.63253 5.99909C6.63253 5.99909 7.80598 5.6171 10.4764 7.45596C11.5911 7.14105 12.7865 6.98313 13.9741 6.97771C15.1617 6.98313 16.358 7.14105 17.4748 7.45596C20.1419 5.6171 21.3138 5.99909 21.3138 5.99909C22.0744 7.95681 21.5959 9.40215 21.4508 9.76037C22.3468 10.7557 22.889 12.0236 22.889 13.5753C22.889 19.0342 19.6199 20.2362 16.5082 20.5881C17.0094 21.0291 17.456 21.8941 17.456 23.2201C17.456 25.1216 17.4398 26.6521 17.4398 27.1205C17.4398 27.4987 17.6914 27.9419 18.3997 27.8023C23.949 25.9209 27.9479 20.5951 27.9479 14.3176C27.9479 6.46792 21.6914 0.10498 13.9741 0.10498" fill="black"/>
<path d="M5.2927 20.5113C5.26192 20.5822 5.1527 20.6031 5.0532 20.5547C4.95184 20.5083 4.89492 20.412 4.92778 20.3412C4.95786 20.2685 5.06731 20.2484 5.16844 20.2967C5.27002 20.3433 5.32787 20.4405 5.2927 20.5113" fill="black"/>
<path d="M5.85872 21.1534C5.79207 21.2163 5.66179 21.1871 5.57339 21.0878C5.48199 20.9887 5.46487 20.8562 5.53244 20.7924C5.60116 20.7296 5.72751 20.759 5.81915 20.8581C5.91055 20.9583 5.92837 21.0899 5.85872 21.1534" fill="black"/>
<path d="M6.40969 21.972C6.32407 22.0325 6.18407 21.9758 6.09752 21.8494C6.0119 21.723 6.0119 21.5714 6.09938 21.5107C6.18615 21.45 6.32407 21.5046 6.41177 21.63C6.49716 21.7583 6.49716 21.9101 6.40969 21.972" fill="black"/>
<path d="M7.16454 22.7628C7.08794 22.8487 6.9248 22.8256 6.8054 22.7084C6.68321 22.5938 6.6492 22.4312 6.72602 22.3453C6.80354 22.2591 6.96761 22.2834 7.08794 22.3996C7.2092 22.514 7.24622 22.6778 7.16454 22.7628" fill="black"/>
<path d="M8.20586 23.222C8.17207 23.3333 8.01495 23.3839 7.85667 23.3366C7.69862 23.2879 7.59518 23.1575 7.62711 23.045C7.65997 22.933 7.81779 22.8802 7.97723 22.9308C8.13505 22.9793 8.23872 23.1088 8.20586 23.222" fill="black"/>
<path d="M9.34946 23.3072C9.35339 23.4244 9.21918 23.5216 9.05303 23.5235C8.88595 23.5275 8.75081 23.4326 8.74896 23.3173C8.74896 23.1989 8.88017 23.1026 9.04724 23.0998C9.21339 23.0965 9.34946 23.1907 9.34946 23.3072" fill="black"/>
<path d="M10.4137 23.1229C10.4336 23.2373 10.3181 23.3547 10.1531 23.3858C9.99091 23.4162 9.84073 23.3455 9.82013 23.2321C9.8 23.1149 9.91755 22.9975 10.0795 22.9671C10.2448 22.9379 10.3926 23.0066 10.4137 23.1229" fill="black"/>
</svg>
