<svg width="28" height="28" viewBox="0 0 28 28" fill="none" xmlns="http://www.w3.org/2000/svg">
<path d="M14.0252 0.10498C6.30857 0.10498 0.0511475 6.46792 0.0511475 14.3176C0.0511475 20.5973 4.05515 25.9249 9.60748 27.8042C10.3059 27.9358 10.5623 27.4959 10.5623 27.1205C10.5623 26.7816 10.5493 25.662 10.5433 24.4743C6.65568 25.3341 5.83535 22.7974 5.83535 22.7974C5.19968 21.1546 4.28378 20.7178 4.28378 20.7178C3.01591 19.8356 4.37935 19.8538 4.37935 19.8538C5.78259 19.9538 6.52146 21.3184 6.52146 21.3184C7.76781 23.4912 9.79052 22.8631 10.5879 22.4999C10.7134 21.5815 11.0755 20.9541 11.4751 20.5994C8.37131 20.24 5.1085 19.0213 5.1085 13.5753C5.1085 12.0236 5.65439 10.7557 6.5483 9.76037C6.40321 9.40215 5.9249 7.95681 6.68368 5.99909C6.68368 5.99909 7.85713 5.6171 10.5275 7.45596C11.6422 7.14105 12.8377 6.98313 14.0252 6.97771C15.2128 6.98313 16.4092 7.14105 17.5259 7.45596C20.1931 5.6171 21.3649 5.99909 21.3649 5.99909C22.1256 7.95681 21.647 9.40215 21.5019 9.76037C22.3979 10.7557 22.9401 12.0236 22.9401 13.5753C22.9401 19.0342 19.671 20.2362 16.5593 20.5881C17.0606 21.0291 17.5072 21.8941 17.5072 23.2201C17.5072 25.1216 17.491 26.6521 17.491 27.1205C17.491 27.4987 17.7425 27.9419 18.4508 27.8023C24.0002 25.9209 27.9991 20.5951 27.9991 14.3176C27.9991 6.46792 21.7426 0.10498 14.0252 0.10498" fill="#EBEBEB"/>
<path d="M5.34385 20.5113C5.31307 20.5822 5.20385 20.6031 5.10434 20.5547C5.00299 20.5083 4.94606 20.412 4.97892 20.3412C5.00901 20.2685 5.11846 20.2484 5.21958 20.2967C5.32117 20.3433 5.37902 20.4405 5.34385 20.5113" fill="#EBEBEB"/>
<path d="M5.90986 21.1534C5.84322 21.2163 5.71294 21.1871 5.62454 21.0878C5.53314 20.9887 5.51601 20.8562 5.58358 20.7924C5.65231 20.7296 5.77866 20.759 5.87029 20.8581C5.9617 20.9583 5.97952 21.0899 5.90986 21.1534" fill="#EBEBEB"/>
<path d="M6.46084 21.972C6.37522 22.0325 6.23522 21.9758 6.14867 21.8494C6.06305 21.723 6.06305 21.5714 6.15052 21.5107C6.2373 21.45 6.37522 21.5046 6.46292 21.63C6.54831 21.7583 6.54831 21.9101 6.46084 21.972" fill="#EBEBEB"/>
<path d="M7.21568 22.7628C7.13909 22.8487 6.97595 22.8256 6.85654 22.7084C6.73436 22.5938 6.70034 22.4312 6.77717 22.3453C6.85469 22.2591 7.01876 22.2834 7.13909 22.3996C7.26035 22.514 7.29737 22.6778 7.21568 22.7628" fill="#EBEBEB"/>
<path d="M8.257 23.222C8.22322 23.3333 8.06609 23.3839 7.90781 23.3366C7.74976 23.2879 7.64633 23.1575 7.67826 23.045C7.71112 22.933 7.86894 22.8802 8.02838 22.9308C8.18619 22.9793 8.28986 23.1088 8.257 23.222" fill="#EBEBEB"/>
<path d="M9.40061 23.3072C9.40454 23.4244 9.27032 23.5216 9.10418 23.5235C8.9371 23.5275 8.80196 23.4326 8.80011 23.3173C8.80011 23.1989 8.93132 23.1026 9.09839 23.0998C9.26454 23.0965 9.40061 23.1907 9.40061 23.3072" fill="#EBEBEB"/>
<path d="M10.4648 23.1229C10.4847 23.2373 10.3693 23.3547 10.2043 23.3858C10.0421 23.4162 9.89187 23.3455 9.87128 23.2321C9.85115 23.1149 9.9687 22.9975 10.1307 22.9671C10.2959 22.9379 10.4438 23.0066 10.4648 23.1229" fill="#EBEBEB"/>
</svg>
