<?xml version="1.0" encoding="UTF-8"?>
<!DOCTYPE svg PUBLIC "-//W3C//DTD SVG 1.1//EN" "http://www.w3.org/Graphics/SVG/1.1/DTD/svg11.dtd">
<svg xmlns="http://www.w3.org/2000/svg" version="1.1" width="184px" height="184px" style="shape-rendering:geometricPrecision; text-rendering:geometricPrecision; image-rendering:optimizeQuality; fill-rule:evenodd; clip-rule:evenodd" xmlns:xlink="http://www.w3.org/1999/xlink">
<g><path style="opacity:0.69" fill="#2a63ff" d="M 81.5,-0.5 C 88.1667,-0.5 94.8333,-0.5 101.5,-0.5C 106.884,1.68935 112.217,4.18935 117.5,7C 137.135,26.6352 156.635,46.1352 176,65.5C 179.193,70.6146 181.693,75.9479 183.5,81.5C 183.5,88.1667 183.5,94.8333 183.5,101.5C 181.311,106.884 178.811,112.217 176,117.5C 156.365,137.135 136.865,156.635 117.5,176C 112.385,179.193 107.052,181.693 101.5,183.5C 94.8333,183.5 88.1667,183.5 81.5,183.5C 76.1164,181.311 70.7831,178.811 65.5,176C 45.8377,156.338 26.3377,136.838 7,117.5C 3.80679,112.385 1.30679,107.052 -0.5,101.5C -0.5,94.8333 -0.5,88.1667 -0.5,81.5C 1.68935,76.1164 4.18935,70.7831 7,65.5C 26.6623,45.8377 46.1623,26.3377 65.5,7C 70.6146,3.80679 75.9479,1.30679 81.5,-0.5 Z M 88.5,61.5 C 107.749,62.4155 118.749,72.4155 121.5,91.5C 119.167,109.167 109.167,119.167 91.5,121.5C 73.8293,119.163 63.8293,109.163 61.5,91.5C 63.5709,75.1027 72.5709,65.1027 88.5,61.5 Z"/></g>
</svg>
