<svg width="28" height="28" viewBox="0 0 28 28" fill="none" xmlns="http://www.w3.org/2000/svg">
<rect width="28" height="28" rx="6" fill="#0A66C2"/>
<g clip-path="url(#clip0_496_2340)">
<path d="M5.83333 8.01222C5.83333 7.48668 6.01727 7.05313 6.38513 6.71155C6.75299 6.36995 7.23123 6.19916 7.81981 6.19916C8.3979 6.19916 8.86561 6.36732 9.22297 6.70366C9.59083 7.05051 9.77477 7.50245 9.77477 8.05952C9.77477 8.56402 9.5961 8.98443 9.23873 9.32078C8.87087 9.66763 8.38738 9.84105 7.78828 9.84105H7.77252C7.19443 9.84105 6.72673 9.66763 6.36936 9.32078C6.012 8.97393 5.83333 8.53774 5.83333 8.01222ZM6.03828 21.8073V11.2757H9.53828V21.8073H6.03828ZM11.4775 21.8073H14.9775V15.9266C14.9775 15.5588 15.0195 15.275 15.1036 15.0753C15.2507 14.7179 15.4741 14.4157 15.7736 14.1688C16.0732 13.9217 16.4489 13.7983 16.9009 13.7983C18.0781 13.7983 18.6667 14.5918 18.6667 16.1789V21.8073H22.1667V15.769C22.1667 14.2134 21.7988 13.0336 21.0631 12.2296C20.3273 11.4255 19.3551 11.0235 18.1464 11.0235C16.7905 11.0235 15.7342 11.6068 14.9775 12.7735V12.805H14.9617L14.9775 12.7735V11.2757H11.4775C11.4985 11.6121 11.509 12.6579 11.509 14.4131C11.509 16.1684 11.4985 18.6331 11.4775 21.8073Z" fill="white"/>
</g>
<defs>
<clipPath id="clip0_496_2340">
<rect width="16.3333" height="16.3333" fill="white" transform="translate(5.83333 5.83331)"/>
</clipPath>
</defs>
</svg>
