<svg width="27" height="28" viewBox="0 0 27 28" fill="none" xmlns="http://www.w3.org/2000/svg">
<g clip-path="url(#clip0_508_2398)">
<path d="M9.42587 0.879206C5.12972 1.19625 1.47751 1.48782 1.3058 1.52197C0.824342 1.6076 0.386359 1.93331 0.18041 2.362L0 2.7392L0.0173889 11.7292L0.0429288 20.7192L0.317891 21.2763C0.47276 21.5847 1.52098 23.0247 2.66376 24.5069C4.92377 27.4292 5.08679 27.5923 5.94591 27.6779C6.19534 27.7034 8.06845 27.6178 10.0964 27.498C12.1331 27.3696 15.3979 27.1723 17.3574 27.0612C25.7263 26.5545 25.2965 26.5973 25.7774 26.1859C26.3789 25.689 26.336 26.503 26.3616 15.5766C26.3789 6.31233 26.3703 5.70426 26.2328 5.42135C26.0698 5.10431 25.7774 4.88156 21.9622 2.20754C19.4104 0.425045 19.2299 0.330744 18.0866 0.313402C17.6144 0.296601 13.7133 0.553489 9.42587 0.879206ZM19.0838 2.05309C19.4446 2.21567 22.0828 4.04966 22.4692 4.40139C22.5724 4.50436 22.6066 4.58999 22.555 4.64148C22.4349 4.74445 6.10839 5.71293 5.63617 5.6441C5.42153 5.60996 5.10364 5.48151 4.92323 5.3612C4.17551 4.85555 2.31979 3.33861 2.31979 3.22751C2.31979 2.93594 2.25947 2.93594 9.53781 2.41349C10.93 2.31919 13.2156 2.14793 14.6078 2.03629C17.6231 1.7962 18.5257 1.80487 19.0838 2.05309ZM24.2738 6.74102C24.3939 6.86079 24.4971 7.09221 24.5314 7.31495C24.5569 7.5209 24.5743 11.3601 24.5569 15.8334C24.5314 23.5119 24.5227 23.9921 24.3765 24.2148C24.2907 24.3519 24.1189 24.4977 23.9896 24.5405C23.6293 24.6863 6.52138 25.6548 6.16925 25.5518C6.00623 25.509 5.78235 25.3719 5.66226 25.2521L5.45577 25.0294L5.43023 16.751C5.41284 10.9407 5.43023 8.3696 5.49924 8.13819C5.55086 7.96693 5.67965 7.76099 5.79159 7.6927C5.94646 7.58973 6.96045 7.5041 10.4491 7.2987C12.8982 7.16158 16.6874 6.93016 18.8615 6.80172C24.0331 6.48413 24.0162 6.48413 24.2738 6.74102Z" fill="white"/>
<path d="M19.6766 9.57757C18.7485 9.63773 17.9236 9.72336 17.829 9.77485C17.5454 9.92063 17.3737 10.1607 17.3394 10.435C17.3139 10.7179 17.3998 10.752 18.3273 10.8636L18.7311 10.9151V14.5744C18.7311 16.7509 18.6969 18.1909 18.6539 18.1481C18.611 18.0966 17.3911 16.2458 15.9385 14.0346C14.4866 11.8153 13.2835 9.98946 13.2661 9.97266C13.2487 9.95532 12.3037 10.0068 11.1696 10.0843C9.77744 10.1786 9.01287 10.2642 8.858 10.3499C8.60858 10.4783 8.33362 10.9325 8.33362 11.2327C8.33362 11.4126 8.6602 11.5069 9.34761 11.5069H9.70843V22.0307L9.12427 22.2106C8.6689 22.3477 8.51403 22.4334 8.43686 22.6046C8.29938 22.8962 8.30808 23.1617 8.44556 23.1617C8.49718 23.1617 9.46824 23.1016 10.5849 23.0333C12.7933 22.9049 13.0422 22.8447 13.2742 22.3905C13.3432 22.2534 13.403 22.1076 13.403 22.0648C13.403 22.0307 13.1025 21.9277 12.7412 21.8421C12.3716 21.7565 12.0021 21.6708 11.925 21.6535C11.7788 21.6107 11.7701 21.3451 11.7701 17.6598V13.7089L14.3822 17.7969C17.1232 22.0816 17.4671 22.5705 17.8883 22.7845C18.4127 23.0588 19.7445 22.8702 20.4146 22.4334L20.621 22.3049L20.6384 16.4604L20.664 10.6073L21.1193 10.5217C21.6606 10.4187 21.91 10.1705 21.91 9.74179C21.91 9.46756 21.8926 9.45021 21.635 9.45889C21.4812 9.46593 20.596 9.51742 19.6766 9.57757Z" fill="white"/>
</g>
<defs>
<clipPath id="clip0_508_2398">
<rect width="26.3789" height="28" fill="white"/>
</clipPath>
</defs>
</svg>
