<svg width="32" height="28" viewBox="0 0 32 28" fill="none" xmlns="http://www.w3.org/2000/svg">
<path d="M31.4415 14.0032C31.4415 11.9203 28.8331 9.94644 24.8341 8.72236C25.7569 4.64637 25.3468 1.40352 23.5395 0.365301C23.1229 0.121767 22.6358 0.00640869 22.1039 0.00640869V1.43557C22.3987 1.43557 22.6358 1.49325 22.8345 1.6022C23.7061 2.10208 24.0842 4.00549 23.7894 6.45365C23.7189 7.05608 23.6036 7.69055 23.4626 8.33783C22.2065 8.03021 20.835 7.79309 19.393 7.63928C18.5278 6.45365 17.6306 5.37697 16.7269 4.43488C18.8162 2.49302 20.7773 1.42916 22.1103 1.42916V0C20.3479 0 18.0407 1.25612 15.7079 3.43511C13.3751 1.26894 11.068 0.0256353 9.30556 0.0256353V1.45479C10.6322 1.45479 12.5997 2.51225 14.6889 4.44129C13.7917 5.38338 12.8945 6.45365 12.0421 7.63928C10.5937 7.79309 9.22225 8.03021 7.96612 8.34424C7.81872 7.70336 7.70977 7.08171 7.63287 6.48569C7.33165 4.03754 7.70336 2.13413 8.56855 1.62783C8.76081 1.51247 9.01076 1.4612 9.30556 1.4612V0.0320439C8.76722 0.0320439 8.28015 0.147402 7.85717 0.390936C6.05631 1.42916 5.65255 4.6656 6.58183 8.72877C2.59556 9.95926 0 11.9268 0 14.0032C0 16.0861 2.60838 18.06 6.60746 19.284C5.6846 23.36 6.09476 26.6029 7.90204 27.6411C8.31861 27.8846 8.80568 28 9.34401 28C11.1064 28 13.4136 26.7439 15.7464 24.5649C18.0792 26.7311 20.3864 27.9744 22.1488 27.9744C22.6871 27.9744 23.1742 27.859 23.5972 27.6155C25.398 26.5772 25.8018 23.3408 24.8725 19.2776C28.846 18.0536 31.4415 16.0797 31.4415 14.0032ZM23.0973 9.72854C22.8601 10.5553 22.5653 11.4076 22.2321 12.26C21.9693 11.7473 21.6938 11.2346 21.3925 10.7219C21.0977 10.2092 20.7837 9.70931 20.4697 9.22225C21.3797 9.35683 22.2577 9.52346 23.0973 9.72854ZM20.162 16.5539C19.6622 17.4191 19.1495 18.2394 18.6175 19.0021C17.6626 19.0854 16.6949 19.1302 15.7208 19.1302C14.753 19.1302 13.7853 19.0854 12.8368 19.0085C12.3049 18.2458 11.7858 17.4319 11.2859 16.5731C10.7988 15.7336 10.3566 14.8812 9.95285 14.0224C10.3502 13.1637 10.7988 12.3049 11.2795 11.4653C11.7794 10.6001 12.2921 9.77981 12.824 9.01717C13.7789 8.93385 14.7466 8.88899 15.7208 8.88899C16.6885 8.88899 17.6562 8.93385 18.6047 9.01076C19.1366 9.7734 19.6558 10.5873 20.1556 11.4461C20.6427 12.2856 21.0849 13.138 21.4887 13.9968C21.0849 14.8556 20.6427 15.7143 20.162 16.5539ZM22.2321 15.7208C22.5782 16.5795 22.873 17.4383 23.1165 18.2715C22.277 18.4765 21.3925 18.6496 20.4761 18.7842C20.7901 18.2907 21.1041 17.7844 21.3989 17.2653C21.6938 16.7526 21.9693 16.2335 22.2321 15.7208ZM15.7336 22.5589C15.1376 21.9437 14.5415 21.258 13.9519 20.5081C14.5287 20.5338 15.1183 20.553 15.7144 20.553C16.3168 20.553 16.9128 20.5402 17.496 20.5081C16.9192 21.258 16.3232 21.9437 15.7336 22.5589ZM10.9654 18.7842C10.0554 18.6496 9.17739 18.4829 8.33783 18.2779C8.57496 17.4511 8.86976 16.5988 9.20302 15.7464C9.46578 16.2591 9.74136 16.7718 10.0426 17.2845C10.3438 17.7972 10.6514 18.2971 10.9654 18.7842ZM15.7015 5.44747C16.2976 6.06271 16.8936 6.74845 17.4832 7.49828C16.9064 7.47265 16.3168 7.45342 15.7208 7.45342C15.1183 7.45342 14.5223 7.46624 13.9391 7.49828C14.5159 6.74845 15.1119 6.06271 15.7015 5.44747ZM10.959 9.22225C10.645 9.71572 10.331 10.222 10.0362 10.7411C9.74136 11.2538 9.46578 11.7665 9.20302 12.2792C8.85695 11.4205 8.56214 10.5617 8.31861 9.72854C9.15816 9.52987 10.0426 9.35683 10.959 9.22225ZM5.15908 17.2461C2.89036 16.2783 1.42275 15.0094 1.42275 14.0032C1.42275 12.997 2.89036 11.7217 5.15908 10.7604C5.71023 10.5232 6.31266 10.3117 6.93431 10.1131C7.29961 11.3692 7.78027 12.6766 8.37629 14.016C7.78668 15.3491 7.31243 16.65 6.95354 17.8997C6.31907 17.7011 5.71664 17.4832 5.15908 17.2461ZM8.607 26.4042C7.73541 25.9043 7.35729 24.0009 7.65209 21.5528C7.72259 20.9503 7.83795 20.3159 7.97894 19.6686C9.23507 19.9762 10.6065 20.2133 12.0485 20.3671C12.9137 21.5528 13.8109 22.6294 14.7146 23.5715C12.6253 25.5134 10.6642 26.5772 9.3312 26.5772C9.0428 26.5708 8.79927 26.5132 8.607 26.4042ZM23.8087 21.5207C24.1099 23.9689 23.7382 25.8723 22.873 26.3786C22.6807 26.4939 22.4308 26.5452 22.136 26.5452C20.8093 26.5452 18.8418 25.4878 16.7526 23.5587C17.6498 22.6166 18.547 21.5463 19.3994 20.3607C20.8478 20.2069 22.2193 19.9698 23.4754 19.6558C23.6228 20.303 23.7382 20.9247 23.8087 21.5207ZM26.276 17.2461C25.7249 17.4832 25.1225 17.6947 24.5008 17.8933C24.1355 16.6372 23.6548 15.3298 23.0588 13.9904C23.6484 12.6574 24.1227 11.3564 24.4816 10.1067C25.116 10.3053 25.7185 10.5232 26.2824 10.7604C28.5512 11.7281 30.0188 12.997 30.0188 14.0032C30.0124 15.0094 28.5447 16.2847 26.276 17.2461Z" fill="#61DAFB"/>
<path d="M15.7143 16.932C17.3319 16.932 18.6432 15.6208 18.6432 14.0032C18.6432 12.3857 17.3319 11.0744 15.7143 11.0744C14.0968 11.0744 12.7855 12.3857 12.7855 14.0032C12.7855 15.6208 14.0968 16.932 15.7143 16.932Z" fill="#61DAFB"/>
</svg>
