<svg width="27" height="23" viewBox="0 0 27 23" fill="none" xmlns="http://www.w3.org/2000/svg">
<path d="M23.8665 5.57755C23.8773 5.82395 23.8773 6.05915 23.8773 6.30555C23.8881 13.776 18.3996 22.4 8.36247 22.4C5.40211 22.4 2.49578 21.5152 0 19.8576C0.432169 19.9136 0.864338 19.936 1.29651 19.936C3.74907 19.936 6.1368 19.0848 8.07076 17.5056C5.73704 17.4608 3.68424 15.8816 2.97116 13.5744C3.79228 13.7424 4.63501 13.7088 5.43452 13.4736C2.89553 12.9584 1.06962 10.64 1.05881 7.94075C1.05881 7.91835 1.05881 7.89595 1.05881 7.87355C1.81511 8.31036 2.66864 8.55676 3.53298 8.57916C1.14525 6.92155 0.399756 3.61754 1.84752 1.03033C4.62421 4.56954 8.7082 6.70875 13.0947 6.94395C12.6517 4.98394 13.2568 2.92314 14.6721 1.53433C16.8654 -0.604874 20.3227 -0.492873 22.3972 1.78073C23.618 1.53433 24.7957 1.06393 25.8653 0.40313C25.4548 1.71353 24.6012 2.82234 23.4668 3.52794C24.5472 3.39354 25.606 3.09114 26.6 2.64314C25.8653 3.78554 24.9361 4.77114 23.8665 5.57755Z" fill="#1D9BF0"/>
</svg>
