<svg width="44" height="28" viewBox="0 0 44 28" fill="none" xmlns="http://www.w3.org/2000/svg">
<path d="M32.6785 8.60156V0.137143C32.6785 0.00658616 32.5153 -0.0478127 32.4283 0.0501047L23.1805 11.6044C23.1044 11.6914 23.1696 11.8328 23.2893 11.8328H29.9695C30.1544 11.8328 30.3176 11.7458 30.4264 11.6044L32.5371 8.97147C32.6241 8.87355 32.6785 8.743 32.6785 8.60156ZM11.0496 8.98235L17.9909 17.6644C18.0997 17.8058 18.2738 17.882 18.4587 17.882H25.1389C25.2585 17.882 25.3238 17.7514 25.2477 17.6644L11.1584 0.0609851C11.0714 -0.0369324 10.9082 0.0174665 10.9082 0.148023V8.61244C10.9191 8.743 10.9626 8.87355 11.0496 8.98235Z" fill="#FF4655"/>
<path d="M38.8079 22.9627H40.3637V27.728C40.3637 27.7932 40.4181 27.8368 40.4725 27.8368H41.3647C41.4299 27.8368 41.4735 27.7824 41.4735 27.728V22.9627H43.4318C43.4862 22.9627 43.5189 22.8974 43.4862 22.8539L42.8117 22.0161C42.7573 21.9508 42.6702 21.9073 42.5832 21.9073H38.7971C38.7318 21.9073 38.6883 21.9617 38.6883 22.0161V22.8539C38.6991 22.9083 38.7427 22.9627 38.8079 22.9627ZM1.19677 27.7388L5.76625 22.0161C5.79889 21.9726 5.76625 21.9073 5.71185 21.9073H4.58036C4.49332 21.9073 4.40628 21.9508 4.35189 22.0161L1.10973 26.0743V22.0161C1.10973 21.9508 1.05533 21.9073 1.00093 21.9073H0.108797C0.0435189 21.9073 0 21.9617 0 22.0161V27.7388C0 27.8041 0.0543986 27.8476 0.108797 27.8476H0.979174C1.05533 27.8476 1.14237 27.8041 1.19677 27.7388ZM4.42804 27.7388L5.99472 25.7696L7.57228 27.7388C7.62668 27.8041 7.71372 27.8476 7.80075 27.8476H8.67113C8.73641 27.8476 8.77993 27.7932 8.77993 27.7388V22.0161C8.77993 21.9508 8.72553 21.9073 8.67113 21.9073H7.94219C7.76812 21.9073 7.59404 21.9835 7.48524 22.1249L3.0028 27.7388C2.97016 27.7824 3.0028 27.8476 3.0572 27.8476H4.18869C4.28661 27.8476 4.36276 27.8041 4.42804 27.7388ZM7.6702 23.561V26.1939L6.61487 24.8775L7.6702 23.561ZM33.1831 27.7388L28.6136 22.0161C28.5592 21.9508 28.4722 21.9073 28.3852 21.9073H27.5148C27.4495 21.9073 27.406 21.9617 27.406 22.0161V27.7388C27.406 27.8041 27.4604 27.8476 27.5148 27.8476H28.3852C28.4722 27.8476 28.5592 27.8041 28.6136 27.7388L30.1912 25.7696L31.7579 27.7388C31.8123 27.8041 31.8993 27.8476 31.9864 27.8476H33.1287C33.194 27.8476 33.2266 27.7824 33.1831 27.7388ZM29.5711 24.8775L28.5157 26.1939V23.561L29.5711 24.8775ZM16.9941 21.755C15.2751 21.755 13.8716 23.1476 13.8716 24.8775C13.8716 26.5965 15.2642 28 16.9941 28C18.7131 28 20.1166 26.6074 20.1166 24.8775C20.1166 23.1476 18.7131 21.755 16.9941 21.755ZM16.9941 26.9337C15.8844 26.9337 14.9922 26.009 14.9922 24.8775C14.9922 23.7351 15.8844 22.8212 16.9941 22.8212C18.1038 22.8212 18.996 23.746 18.996 24.8775C18.996 26.009 18.1038 26.9337 16.9941 26.9337ZM36.8061 22.0161V26.0743L33.5639 22.0161C33.5095 21.9508 33.4225 21.9073 33.3354 21.9073H32.4651C32.3998 21.9073 32.3563 21.9617 32.3563 22.0161V24.7687C32.3563 24.834 32.378 24.8992 32.4215 24.9536L33.3463 26.1178C33.3898 26.1722 33.466 26.1395 33.466 26.0743V23.6807L36.7082 27.7388C36.7626 27.8041 36.8496 27.8476 36.9366 27.8476H37.807C37.8723 27.8476 37.9158 27.7932 37.9158 27.7388V22.0161C37.9158 21.9508 37.8614 21.9073 37.807 21.9073H36.9149C36.8605 21.9073 36.8061 21.9508 36.8061 22.0161ZM25.9046 23.2564V22.0161C25.9046 21.9508 25.8502 21.9073 25.7958 21.9073H21.2263C21.161 21.9073 21.1175 21.9617 21.1175 22.0161V27.7388C21.1175 27.8041 21.1719 27.8476 21.2263 27.8476H22.1185C22.1837 27.8476 22.2273 27.7932 22.2273 27.7388V22.9735H24.784L23.0541 25.1386C23.0215 25.1821 23.0215 25.2365 23.0541 25.28L25.0233 27.7497C25.0777 27.815 25.1648 27.8585 25.2518 27.8585H26.3942C26.4486 27.8585 26.4812 27.7932 26.4486 27.7497L24.4358 25.193L25.8393 23.4305C25.8828 23.387 25.9046 23.3217 25.9046 23.2564ZM10.2378 27.8476H12.8816C12.9686 27.8476 13.0557 27.8041 13.1101 27.7388L13.7737 26.9011C13.8064 26.8576 13.7737 26.7923 13.7193 26.7923H11.2387V22.027C11.2387 21.9617 11.1843 21.9182 11.1299 21.9182H10.2378C10.1725 21.9182 10.129 21.9726 10.129 22.027V27.7497C10.129 27.7932 10.1725 27.8476 10.2378 27.8476Z" fill="#FF4655"/>
</svg>
