<svg width="35" height="24" viewBox="0 0 35 24" fill="none" xmlns="http://www.w3.org/2000/svg">
<path d="M14.112 23.9014C7.62273 23.7819 5.40631 23.6744 4.04397 23.3937C3.12226 23.2072 2.32129 22.7932 1.73399 22.1926C1.28009 21.7381 0.919116 21.0446 0.639062 20.0824C0.398834 19.2808 0.305272 18.6138 0.171882 16.9847C-0.0323109 13.308 -0.0809886 10.302 0.171882 6.94321C0.380501 5.0884 0.481649 2.88652 1.86738 1.60194C2.52169 1.00074 3.28283 0.613845 4.13753 0.453904C5.47269 0.200401 11.161 0 17.0498 0C22.9252 0 28.6262 0.200401 29.9626 0.453904C31.0304 0.654304 32.0317 1.25487 32.6197 2.02929C33.884 4.01812 33.9061 6.4912 34.0345 8.42566C34.0876 9.34738 34.0876 14.5812 34.0345 15.5029C33.8347 18.5601 33.6741 19.6418 33.2202 20.7632C32.9395 21.4713 32.6999 21.8449 32.2852 22.259C31.6348 22.8962 30.8057 23.32 29.9082 23.474C24.2926 23.8963 19.5241 23.988 14.112 23.9014ZM22.7115 11.6169C19.5873 9.94731 16.5959 8.39911 13.538 6.79654V16.3841C16.7558 14.6349 20.1481 13.0323 22.7248 11.6036L22.7115 11.6169Z" fill="black"/>
</svg>
